<svg width="24" height="24" viewBox="0 0 24 24" fill="none" xmlns="http://www.w3.org/2000/svg">
<path d="M2.69482 7.18641L11.6948 11.1864L12.3048 9.81641L3.30482 5.81641L2.69482 7.18641ZM12.7498 21.5014V10.5014H11.2498V21.5014H12.7498ZM12.3048 11.1864L21.3048 7.18641L20.6948 5.81641L11.6948 9.81641L12.3048 11.1864Z" fill="#6C757D"/>
<path d="M3 17.1105V6.89049C3.00003 6.77452 3.03367 6.66103 3.09685 6.56378C3.16003 6.46652 3.25005 6.38966 3.356 6.34249L11.756 2.60849C11.8328 2.57431 11.9159 2.55664 12 2.55664C12.0841 2.55664 12.1672 2.57431 12.244 2.60849L20.644 6.34249C20.75 6.38966 20.84 6.46652 20.9032 6.56378C20.9663 6.66103 21 6.77452 21 6.89049V17.1105C21 17.2265 20.9663 17.34 20.9032 17.4372C20.84 17.5345 20.75 17.6113 20.644 17.6585L12.244 21.3925C12.1672 21.4267 12.0841 21.4443 12 21.4443C11.9159 21.4443 11.8328 21.4267 11.756 21.3925L3.356 17.6585C3.25005 17.6113 3.16003 17.5345 3.09685 17.4372C3.03367 17.34 3.00003 17.2265 3 17.1105Z" stroke="#6C757D" stroke-width="2" stroke-linecap="round" stroke-linejoin="round"/>
<path d="M7.5 4.5L16.144 8.342C16.25 8.38916 16.34 8.46603 16.4032 8.56328C16.4663 8.66054 16.5 8.77402 16.5 8.89V12.5" stroke="#6C757D" stroke-width="2" stroke-linecap="round" stroke-linejoin="round"/>
</svg>
