<svg width="24" height="24" viewBox="0 0 24 24" fill="none" xmlns="http://www.w3.org/2000/svg">
<path fill-rule="evenodd" clip-rule="evenodd" d="M4.917 6.00348C5.04794 5.99252 5.17975 6.00748 5.30491 6.04749C5.43007 6.0875 5.54611 6.15178 5.64641 6.23667C5.74671 6.32155 5.8293 6.42537 5.88946 6.54219C5.94961 6.65901 5.98615 6.78654 5.997 6.91748L6.846 17.1655C6.8874 17.6656 7.1153 18.1319 7.48449 18.4718C7.85368 18.8117 8.33716 19.0004 8.839 19.0005H15.161C15.6628 19.0004 16.1463 18.8117 16.5155 18.4718C16.8847 18.1319 17.1126 17.6656 17.154 17.1655L18.004 6.91748C18.0285 6.65513 18.1555 6.41304 18.3575 6.24383C18.5595 6.07462 18.8201 5.99197 19.0827 6.01384C19.3453 6.03571 19.5886 6.16034 19.7598 6.36063C19.931 6.56092 20.0163 6.82069 19.997 7.08349L19.147 17.3305C19.0642 18.3306 18.6085 19.263 17.8704 19.9428C17.1322 20.6226 16.1655 21.0001 15.162 21.0005H8.84C7.83615 21.0006 6.86893 20.6233 6.13035 19.9435C5.39177 19.2636 4.93581 18.3309 4.853 17.3305L4.003 7.08349C3.99204 6.95255 4.00699 6.82073 4.047 6.69557C4.08701 6.57041 4.1513 6.45437 4.23618 6.35407C4.32106 6.25377 4.42488 6.17118 4.5417 6.11103C4.65852 6.05087 4.78605 6.01433 4.917 6.00348Z" fill="white"/>
<path fill-rule="evenodd" clip-rule="evenodd" d="M3 7C3 6.73478 3.10536 6.48043 3.29289 6.29289C3.48043 6.10536 3.73478 6 4 6H20C20.2652 6 20.5196 6.10536 20.7071 6.29289C20.8946 6.48043 21 6.73478 21 7C21 7.26522 20.8946 7.51957 20.7071 7.70711C20.5196 7.89464 20.2652 8 20 8H4C3.73478 8 3.48043 7.89464 3.29289 7.70711C3.10536 7.51957 3 7.26522 3 7ZM10 9C10.2652 9 10.5196 9.10536 10.7071 9.29289C10.8946 9.48043 11 9.73478 11 10V16C11 16.2652 10.8946 16.5196 10.7071 16.7071C10.5196 16.8946 10.2652 17 10 17C9.73478 17 9.48043 16.8946 9.29289 16.7071C9.10536 16.5196 9 16.2652 9 16V10C9 9.73478 9.10536 9.48043 9.29289 9.29289C9.48043 9.10536 9.73478 9 10 9ZM14 9C14.2652 9 14.5196 9.10536 14.7071 9.29289C14.8946 9.48043 15 9.73478 15 10V16C15 16.2652 14.8946 16.5196 14.7071 16.7071C14.5196 16.8946 14.2652 17 14 17C13.7348 17 13.4804 16.8946 13.2929 16.7071C13.1054 16.5196 13 16.2652 13 16V10C13 9.73478 13.1054 9.48043 13.2929 9.29289C13.4804 9.10536 13.7348 9 14 9Z" fill="white"/>
<path fill-rule="evenodd" clip-rule="evenodd" d="M10.4412 5C10.2314 5.00016 10.027 5.0663 9.85687 5.18905C9.68674 5.3118 9.55952 5.48496 9.49323 5.684L8.94923 7.316C8.86542 7.56769 8.68506 7.77578 8.44783 7.89449C8.21059 8.0132 7.93592 8.03281 7.68423 7.949C7.43254 7.86519 7.22445 7.68483 7.10574 7.4476C6.98703 7.21036 6.96742 6.93569 7.05123 6.684L7.59523 5.051C7.79439 4.45373 8.17642 3.93426 8.6872 3.56616C9.19798 3.19806 9.81163 2.99999 10.4412 3H13.5582C14.1878 2.99999 14.8015 3.19806 15.3123 3.56616C15.823 3.93426 16.2051 4.45373 16.4042 5.051L16.9492 6.684C16.9907 6.80862 17.0073 6.9402 16.9979 7.07122C16.9886 7.20224 16.9535 7.33013 16.8947 7.4476C16.8359 7.56506 16.7546 7.6698 16.6553 7.75583C16.5561 7.84186 16.4409 7.9075 16.3162 7.949C16.1916 7.9905 16.06 8.00704 15.929 7.99769C15.798 7.98834 15.6701 7.95327 15.5526 7.89449C15.3154 7.77578 15.135 7.56769 15.0512 7.316L14.5072 5.684C14.441 5.48512 14.3139 5.31208 14.144 5.18934C13.9741 5.0666 13.7699 5.00037 13.5602 5H10.4432H10.4412Z" fill="white"/>
</svg>
