<svg width="24" height="24" viewBox="0 0 24 24" fill="none" xmlns="http://www.w3.org/2000/svg">
<path fill-rule="evenodd" clip-rule="evenodd" d="M3.5 7.62845C3.5 6.53352 3.93496 5.48343 4.7092 4.7092C5.48343 3.93496 6.53352 3.5 7.62845 3.5H12C12.2254 3.5 12.4416 3.58955 12.601 3.74896C12.7604 3.90837 12.85 4.12457 12.85 4.35C12.85 4.57543 12.7604 4.79163 12.601 4.95104C12.4416 5.11045 12.2254 5.2 12 5.2H7.62845C6.98439 5.2 6.3667 5.45585 5.91128 5.91128C5.45585 6.3667 5.2 6.98439 5.2 7.62845V16.3715C5.2 17.0156 5.45585 17.6333 5.91128 18.0887C6.3667 18.5441 6.98439 18.8 7.62845 18.8H16.3715C17.0156 18.8 17.6333 18.5441 18.0887 18.0887C18.5441 17.6333 18.8 17.0156 18.8 16.3715V12C18.8 11.7746 18.8896 11.5584 19.049 11.399C19.2084 11.2396 19.4246 11.15 19.65 11.15C19.8754 11.15 20.0916 11.2396 20.251 11.399C20.4104 11.5584 20.5 11.7746 20.5 12V16.3715C20.5 17.4665 20.065 18.5166 19.2908 19.2908C18.5166 20.065 17.4665 20.5 16.3715 20.5H7.62845C6.53352 20.5 5.48343 20.065 4.7092 19.2908C3.93496 18.5166 3.5 17.4665 3.5 16.3715V7.62845Z" fill="black"/>
<path fill-rule="evenodd" clip-rule="evenodd" d="M14.6665 13.0363L12.7922 14.1668L11.9142 12.7107L13.7884 11.5802L13.791 11.5785C13.8628 11.5353 13.929 11.4833 13.9882 11.4238L18.2467 7.14322C18.2893 7.10022 18.3304 7.05571 18.3699 7.00977C18.6513 6.68167 19.0678 6.03227 18.5637 5.52567C18.1379 5.09727 17.5276 5.50187 17.1323 5.84952C17.0263 5.94299 16.9242 6.04083 16.8263 6.14277L16.7974 6.17167L12.5984 10.3919C12.4987 10.491 12.4206 10.6097 12.3689 10.7404L11.6685 12.5025C11.6552 12.5356 11.6527 12.5721 11.6614 12.6068C11.67 12.6414 11.6893 12.6725 11.7166 12.6956C11.7439 12.7186 11.7777 12.7325 11.8134 12.7352C11.849 12.7379 11.8837 12.7294 11.9142 12.7107L12.7922 14.1668C11.258 15.0916 9.42621 13.5378 10.0892 11.8735L10.7905 10.1123C10.927 9.76811 11.1323 9.45544 11.394 9.19342L15.5921 4.97232L15.6168 4.94767C15.7417 4.82017 16.1616 4.39007 16.6708 4.08067C16.9487 3.91322 17.3924 3.69137 17.9407 3.64887C18.5697 3.59872 19.2412 3.79677 19.7682 4.32632C20.1715 4.72479 20.4252 5.25014 20.4864 5.81382C20.5285 6.25318 20.4614 6.69614 20.2909 7.10327C20.0444 7.71272 19.633 8.16067 19.452 8.34172L15.1935 12.6223C15.0348 12.7816 14.8591 12.9195 14.6665 13.0363ZM18.4515 6.97917C18.4515 6.97917 18.4481 6.98172 18.4405 6.98427L18.4515 6.97917Z" fill="black"/>
</svg>
