<svg width="24" height="24" viewBox="0 0 24 24" fill="none" xmlns="http://www.w3.org/2000/svg">
<path d="M5.0002 17.6L8.8752 13.7C9.0752 13.5 9.30853 13.4 9.5752 13.4C9.84186 13.4 10.0752 13.5 10.2752 13.7C10.4752 13.9 10.5752 14.1373 10.5752 14.412C10.5752 14.6867 10.4752 14.9243 10.2752 15.125L6.4002 19H8.0002C8.28353 19 8.52086 19.0957 8.7122 19.287C8.90353 19.4783 8.99953 19.716 9.0002 20C9.00086 20.284 8.90486 20.5213 8.7122 20.712C8.51953 20.9027 8.2822 20.9987 8.0002 21H4.0002C3.71686 21 3.4792 20.904 3.2872 20.712C3.0952 20.52 2.99953 20.2827 3.0002 20V16C3.0002 15.7167 3.0962 15.479 3.2882 15.287C3.4802 15.095 3.71753 14.9993 4.0002 15C4.28286 15.0007 4.5202 15.0967 4.7122 15.288C4.9042 15.4793 5.0002 15.7167 5.0002 16V17.6Z" fill="white"/>
<path fill-rule="evenodd" clip-rule="evenodd" d="M15.1248 10.299L18.9998 6.39902V7.99902C18.9998 8.28236 19.0958 8.51969 19.2878 8.71102C19.4798 8.90236 19.7171 8.99836 19.9998 8.99902C20.2825 8.99969 20.5198 8.90402 20.7118 8.71202C20.9038 8.52002 20.9998 8.28236 20.9998 7.99902V3.99902C21.0005 3.71636 20.9048 3.47902 20.7128 3.28702C20.5208 3.09502 20.2831 2.99902 19.9998 2.99902H15.9998C15.7178 3.00036 15.4805 3.09636 15.2878 3.28702C15.0951 3.47769 14.9991 3.71502 14.9998 3.99902C15.0005 4.28302 15.0965 4.52069 15.2878 4.71202C15.4791 4.90336 15.7165 4.99902 15.9998 4.99902H17.5998L13.7248 8.87402C13.5248 9.07469 13.4248 9.31236 13.4248 9.58702C13.4248 9.86169 13.5248 10.099 13.7248 10.299C13.9248 10.499 14.1581 10.599 14.4248 10.599C14.6915 10.599 14.9248 10.499 15.1248 10.299Z" fill="white"/>
</svg>
