<svg width="32" height="32" viewBox="0 0 32 32" fill="none" xmlns="http://www.w3.org/2000/svg">
<path d="M5.3335 5.33268C5.3335 4.62544 5.61445 3.94716 6.11454 3.44706C6.61464 2.94697 7.29292 2.66602 8.00016 2.66602H18.6668C19.0204 2.66609 19.3595 2.80662 19.6095 3.05668L26.2762 9.72335C26.5262 9.97334 26.6668 10.3124 26.6668 10.666V26.666C26.6668 27.3733 26.3859 28.0515 25.8858 28.5516C25.3857 29.0517 24.7074 29.3327 24.0002 29.3327H8.00016C7.29292 29.3327 6.61464 29.0517 6.11454 28.5516C5.61445 28.0515 5.3335 27.3733 5.3335 26.666V5.33268ZM23.4482 10.666L18.6668 5.88468V10.666H23.4482ZM16.0002 5.33268H8.00016V26.666H24.0002V13.3327H17.3335C16.9799 13.3327 16.6407 13.1922 16.3907 12.9422C16.1406 12.6921 16.0002 12.353 16.0002 11.9993V5.33268ZM10.6668 17.3327C10.6668 16.9791 10.8073 16.6399 11.0574 16.3899C11.3074 16.1398 11.6465 15.9993 12.0002 15.9993H20.0002C20.3538 15.9993 20.6929 16.1398 20.943 16.3899C21.193 16.6399 21.3335 16.9791 21.3335 17.3327C21.3335 17.6863 21.193 18.0254 20.943 18.2755C20.6929 18.5255 20.3538 18.666 20.0002 18.666H12.0002C11.6465 18.666 11.3074 18.5255 11.0574 18.2755C10.8073 18.0254 10.6668 17.6863 10.6668 17.3327ZM10.6668 22.666C10.6668 22.3124 10.8073 21.9733 11.0574 21.7232C11.3074 21.4732 11.6465 21.3327 12.0002 21.3327H20.0002C20.3538 21.3327 20.6929 21.4732 20.943 21.7232C21.193 21.9733 21.3335 22.3124 21.3335 22.666C21.3335 23.0196 21.193 23.3588 20.943 23.6088C20.6929 23.8589 20.3538 23.9993 20.0002 23.9993H12.0002C11.6465 23.9993 11.3074 23.8589 11.0574 23.6088C10.8073 23.3588 10.6668 23.0196 10.6668 22.666Z" fill="#FF8904"/>
</svg>
