<svg width="24" height="24" viewBox="0 0 24 24" fill="none" xmlns="http://www.w3.org/2000/svg">
<path d="M6.448 7.96989C6.59947 6.60331 7.24963 5.3406 8.27402 4.42348C9.29841 3.50636 10.6251 2.99927 12 2.99927C13.375 2.99927 14.7016 3.50636 15.726 4.42348C16.7504 5.3406 17.4005 6.60331 17.552 7.96989L17.804 10.2359L17.81 10.2929C17.9391 11.4169 18.3052 12.5008 18.884 13.4729L18.914 13.5229L19.491 14.4859C20.016 15.3599 20.278 15.7969 20.221 16.1559C20.1834 16.3942 20.0608 16.6108 19.876 16.7659C19.597 16.9999 19.087 16.9999 18.068 16.9999H5.932C4.912 16.9999 4.402 16.9999 4.124 16.7669C3.93861 16.6117 3.81569 16.3947 3.778 16.1559C3.722 15.7969 3.984 15.3599 4.508 14.4859L5.087 13.5219L5.117 13.4719C5.69536 12.5 6.06107 11.4165 6.19 10.2929L6.196 10.2359L6.448 7.96989Z" stroke="black" stroke-width="2"/>
<path d="M8 17C8 18.0609 8.42143 19.0783 9.17157 19.8284C9.92172 20.5786 10.9391 21 12 21C13.0609 21 14.0783 20.5786 14.8284 19.8284C15.5786 19.0783 16 18.0609 16 17" stroke="black" stroke-width="2" stroke-linecap="round"/>
</svg>
