<svg width="32" height="32" viewBox="0 0 32 32" fill="none" xmlns="http://www.w3.org/2000/svg">
<path d="M11.95 11.7998H6.55007C6.23182 11.7998 5.9266 11.6734 5.70156 11.4484C5.47652 11.2233 5.3501 10.9181 5.3501 10.5999V5.19998C5.3501 4.88172 5.47652 4.5765 5.70156 4.35146C5.9266 4.12643 6.23182 4 6.55007 4C6.86833 4 7.17355 4.12643 7.39859 4.35146C7.62362 4.5765 7.75005 4.88172 7.75005 5.19998V9.39989H11.95C12.2682 9.39989 12.5734 9.52632 12.7985 9.75136C13.0235 9.9764 13.1499 10.2816 13.1499 10.5999C13.1499 10.9181 13.0235 11.2233 12.7985 11.4484C12.5734 11.6734 12.2682 11.7998 11.95 11.7998Z" fill="#0D6EFD"/>
<path d="M26.8007 17.2001C26.4825 17.2001 26.1773 17.0736 25.9522 16.8486C25.7272 16.6236 25.6008 16.3183 25.6008 16.0001C25.6017 13.8876 24.9053 11.8338 23.6197 10.1575C22.3341 8.48123 20.5312 7.27612 18.4907 6.72921C16.4502 6.1823 14.2863 6.32417 12.3346 7.13279C10.383 7.94142 8.75285 9.37159 7.69711 11.2014C7.53766 11.4768 7.27533 11.6777 6.96781 11.7597C6.6603 11.8417 6.33279 11.7982 6.05734 11.6388C5.78189 11.4793 5.58107 11.217 5.49904 10.9095C5.41701 10.602 5.46051 10.2744 5.61995 9.999C6.94023 7.71213 8.97831 5.92489 11.418 4.91456C13.8577 3.90423 16.5626 3.72729 19.1132 4.41118C21.6637 5.09506 23.9173 6.60156 25.5242 8.69694C27.1312 10.7923 28.0017 13.3595 28.0007 16.0001C28.0007 16.3183 27.8743 16.6236 27.6492 16.8486C27.4242 17.0736 27.119 17.2001 26.8007 17.2001ZM25.4508 27.9998C25.1325 27.9998 24.8273 27.8734 24.6022 27.6484C24.3772 27.4233 24.2508 27.1181 24.2508 26.7999V22.6H20.0509C19.7326 22.6 19.4274 22.4735 19.2024 22.2485C18.9773 22.0234 18.8509 21.7182 18.8509 21.4C18.8509 21.0817 18.9773 20.7765 19.2024 20.5515C19.4274 20.3264 19.7326 20.2 20.0509 20.2H25.4508C25.769 20.2 26.0742 20.3264 26.2993 20.5515C26.5243 20.7765 26.6507 21.0817 26.6507 21.4V26.7999C26.6507 27.1181 26.5243 27.4233 26.2993 27.6484C26.0742 27.8734 25.769 27.9998 25.4508 27.9998Z" fill="#0D6EFD"/>
<path d="M15.9998 27.9986C12.8182 27.9954 9.76786 26.7301 7.51816 24.4804C5.26845 22.2307 4.00318 19.1804 4 15.9988C4 15.6806 4.12643 15.3753 4.35146 15.1503C4.5765 14.9253 4.88172 14.7988 5.19998 14.7988C5.51823 14.7988 5.82345 14.9253 6.04849 15.1503C6.27353 15.3753 6.39995 15.6806 6.39995 15.9988C6.39904 18.1113 7.09541 20.1651 8.381 21.8414C9.66659 23.5177 11.4695 24.7228 13.51 25.2697C15.5505 25.8166 17.7145 25.6747 19.6661 24.8661C21.6177 24.0575 23.2479 22.6273 24.3036 20.7975C24.3826 20.6611 24.4876 20.5416 24.6127 20.4458C24.7379 20.35 24.8806 20.2798 25.0329 20.2392C25.1852 20.1986 25.3439 20.1884 25.5002 20.2091C25.6564 20.2299 25.807 20.2812 25.9434 20.3601C26.0798 20.4391 26.1993 20.5441 26.2951 20.6692C26.3908 20.7944 26.4611 20.9372 26.5017 21.0894C26.5423 21.2417 26.5525 21.4005 26.5318 21.5567C26.511 21.7129 26.4597 21.8635 26.3808 21.9999C25.3256 23.8198 23.8118 25.3313 21.9904 26.3839C20.1689 27.4364 18.1034 27.9931 15.9998 27.9986Z" fill="#0D6EFD"/>
</svg>
