<svg width="24" height="24" viewBox="0 0 24 24" fill="none" xmlns="http://www.w3.org/2000/svg">
<path d="M8.9998 16.4004L5.1248 20.3004C4.9248 20.5004 4.69147 20.6004 4.4248 20.6004C4.15814 20.6004 3.9248 20.5004 3.7248 20.3004C3.5248 20.1004 3.4248 19.8631 3.4248 19.5884C3.4248 19.3137 3.5248 19.0761 3.7248 18.8754L7.5998 15.0004H5.9998C5.71647 15.0004 5.47914 14.9047 5.2878 14.7134C5.09647 14.5221 5.00047 14.2844 4.9998 14.0004C4.99914 13.7164 5.09514 13.4791 5.2878 13.2884C5.48047 13.0977 5.7178 13.0017 5.9998 13.0004H9.9998C10.2831 13.0004 10.5208 13.0964 10.7128 13.2884C10.9048 13.4804 11.0005 13.7177 10.9998 14.0004V18.0004C10.9998 18.2837 10.9038 18.5214 10.7118 18.7134C10.5198 18.9054 10.2825 19.0011 9.9998 19.0004C9.71714 18.9997 9.4798 18.9037 9.2878 18.7124C9.0958 18.5211 8.9998 18.2837 8.9998 18.0004V16.4004ZM16.3998 9.00039H17.9998C18.2831 9.00039 18.5208 9.09639 18.7128 9.28839C18.9048 9.48039 19.0005 9.71772 18.9998 10.0004C18.9991 10.2831 18.9031 10.5207 18.7118 10.7134C18.5205 10.9061 18.2831 11.0017 17.9998 11.0004H13.9998C13.7165 11.0004 13.4791 10.9044 13.2878 10.7124C13.0965 10.5204 13.0005 10.2831 12.9998 10.0004V6.00039C12.9998 5.71706 13.0958 5.47972 13.2878 5.28839C13.4798 5.09706 13.7171 5.00106 13.9998 5.00039C14.2825 4.99972 14.5201 5.09572 14.7128 5.28839C14.9055 5.48106 15.0011 5.71839 14.9998 6.00039V7.60039L18.8748 3.70039C19.0748 3.50039 19.3081 3.40039 19.5748 3.40039C19.8415 3.40039 20.0748 3.50039 20.2748 3.70039C20.4748 3.90039 20.5748 4.13772 20.5748 4.41239C20.5748 4.68706 20.4748 4.92472 20.2748 5.12539L16.3998 9.00039Z" fill="white"/>
</svg>
